<?xml version="1.0" encoding="UTF-8" standalone="no"?>
<!DOCTYPE svg PUBLIC "-//W3C//DTD SVG 1.1//EN"
 "http://www.w3.org/Graphics/SVG/1.1/DTD/svg11.dtd">
<!-- Generated by graphviz version 2.42.3 (20191010.1750)
 -->
<!-- Title: dot_graph Pages: 1 -->
<svg width="374pt" height="327pt"
 viewBox="0.00 0.00 374.00 327.00" xmlns="http://www.w3.org/2000/svg" xmlns:xlink="http://www.w3.org/1999/xlink">
<g id="graph0" class="graph" transform="scale(1 1) rotate(0) translate(4 323)">
<title>dot_graph</title>
<polygon fill="white" stroke="transparent" points="-4,4 -4,-323 370,-323 370,4 -4,4"/>
<!-- 3 -->
<g id="node1" class="node">
<title>3</title>
<ellipse fill="none" stroke="black" cx="18" cy="-147" rx="18" ry="18"/>
<text text-anchor="middle" x="18" y="-143.3" font-family="Times,serif" font-size="14.00">3</text>
</g>
<!-- 4 -->
<g id="node2" class="node">
<title>4</title>
<ellipse fill="none" stroke="black" cx="97" cy="-147" rx="18" ry="18"/>
<text text-anchor="middle" x="97" y="-143.3" font-family="Times,serif" font-size="14.00">4</text>
</g>
<!-- 3&#45;&gt;4 -->
<g id="edge1" class="edge">
<title>3&#45;&gt;4</title>
<path fill="none" stroke="black" d="M36.09,-147C45.66,-147 57.82,-147 68.68,-147"/>
<polygon fill="black" stroke="black" points="68.96,-150.5 78.96,-147 68.96,-143.5 68.96,-150.5"/>
<text text-anchor="middle" x="57.5" y="-150.8" font-family="Times,serif" font-size="14.00">5</text>
</g>
<!-- 2 -->
<g id="node3" class="node">
<title>2</title>
<ellipse fill="none" stroke="black" cx="183" cy="-79" rx="18" ry="18"/>
<text text-anchor="middle" x="183" y="-75.3" font-family="Times,serif" font-size="14.00">2</text>
</g>
<!-- 3&#45;&gt;2 -->
<g id="edge2" class="edge">
<title>3&#45;&gt;2</title>
<path fill="none" stroke="black" d="M31.78,-135.34C51.64,-118.17 91.93,-87.01 133,-77 140,-75.29 147.73,-74.93 154.94,-75.22"/>
<polygon fill="black" stroke="black" points="154.74,-78.71 164.99,-76.01 155.3,-71.73 154.74,-78.71"/>
<text text-anchor="middle" x="97" y="-103.8" font-family="Times,serif" font-size="14.00">2</text>
</g>
<!-- 0 -->
<g id="node4" class="node">
<title>0</title>
<ellipse fill="none" stroke="black" cx="348" cy="-79" rx="18" ry="18"/>
<text text-anchor="middle" x="348" y="-75.3" font-family="Times,serif" font-size="14.00">0</text>
</g>
<!-- 3&#45;&gt;0 -->
<g id="edge3" class="edge">
<title>3&#45;&gt;0</title>
<path fill="none" stroke="black" d="M20.17,-128.97C23.79,-89.72 38.38,0 96,0 96,0 96,0 270,0 300.47,0 322.8,-30.51 335.35,-53.6"/>
<polygon fill="black" stroke="black" points="332.3,-55.33 339.97,-62.63 338.53,-52.14 332.3,-55.33"/>
<text text-anchor="middle" x="183" y="-3.8" font-family="Times,serif" font-size="14.00">10</text>
</g>
<!-- 1 -->
<g id="node5" class="node">
<title>1</title>
<ellipse fill="none" stroke="black" cx="269" cy="-203" rx="18" ry="18"/>
<text text-anchor="middle" x="269" y="-199.3" font-family="Times,serif" font-size="14.00">1</text>
</g>
<!-- 3&#45;&gt;1 -->
<g id="edge4" class="edge">
<title>3&#45;&gt;1</title>
<path fill="none" stroke="black" d="M18.08,-165.23C17.8,-192.95 21.89,-245.11 54,-270 116.88,-318.74 165.44,-312.01 233,-270 247.22,-261.16 255.96,-244.49 261.15,-230"/>
<polygon fill="black" stroke="black" points="264.49,-231.02 264.2,-220.43 257.82,-228.89 264.49,-231.02"/>
<text text-anchor="middle" x="140" y="-307.8" font-family="Times,serif" font-size="14.00">1</text>
</g>
<!-- 4&#45;&gt;2 -->
<g id="edge13" class="edge">
<title>4&#45;&gt;2</title>
<path fill="none" stroke="black" d="M103.6,-130.01C108.97,-116.47 118.44,-98.14 133,-88 139.34,-83.58 147.23,-81.15 154.81,-79.86"/>
<polygon fill="black" stroke="black" points="155.24,-83.33 164.78,-78.72 154.45,-76.38 155.24,-83.33"/>
<text text-anchor="middle" x="140" y="-91.8" font-family="Times,serif" font-size="14.00">8</text>
</g>
<!-- 5 -->
<g id="node6" class="node">
<title>5</title>
<ellipse fill="none" stroke="black" cx="183" cy="-204" rx="18" ry="18"/>
<text text-anchor="middle" x="183" y="-200.3" font-family="Times,serif" font-size="14.00">5</text>
</g>
<!-- 4&#45;&gt;5 -->
<g id="edge14" class="edge">
<title>4&#45;&gt;5</title>
<path fill="none" stroke="black" d="M113.28,-155.78C123.08,-161.55 135.99,-169.42 147,-177 151.47,-180.08 156.14,-183.51 160.55,-186.88"/>
<polygon fill="black" stroke="black" points="158.58,-189.77 168.62,-193.14 162.87,-184.24 158.58,-189.77"/>
<text text-anchor="middle" x="140" y="-180.8" font-family="Times,serif" font-size="14.00">6</text>
</g>
<!-- 2&#45;&gt;4 -->
<g id="edge10" class="edge">
<title>2&#45;&gt;4</title>
<path fill="none" stroke="black" d="M168.21,-89.86C158.36,-97.64 144.82,-108.4 133,-118 128.48,-121.67 123.66,-125.63 119.09,-129.41"/>
<polygon fill="black" stroke="black" points="116.71,-126.84 111.25,-135.92 121.18,-132.23 116.71,-126.84"/>
<text text-anchor="middle" x="140" y="-121.8" font-family="Times,serif" font-size="14.00">4</text>
</g>
<!-- 2&#45;&gt;0 -->
<g id="edge9" class="edge">
<title>2&#45;&gt;0</title>
<path fill="none" stroke="black" d="M201.14,-79C229.31,-79 285.66,-79 319.48,-79"/>
<polygon fill="black" stroke="black" points="319.6,-82.5 329.6,-79 319.6,-75.5 319.6,-82.5"/>
<text text-anchor="middle" x="269" y="-82.8" font-family="Times,serif" font-size="14.00">8</text>
</g>
<!-- 1&#45;&gt;3 -->
<g id="edge7" class="edge">
<title>1&#45;&gt;3</title>
<path fill="none" stroke="black" d="M253.03,-212.08C246.96,-215.51 239.79,-219.24 233,-222 204.75,-233.47 195.07,-236.02 165,-231 115.29,-222.69 66.34,-187.5 39.66,-165.39"/>
<polygon fill="black" stroke="black" points="41.69,-162.52 31.8,-158.72 37.16,-167.86 41.69,-162.52"/>
<text text-anchor="middle" x="140" y="-229.8" font-family="Times,serif" font-size="14.00">10</text>
</g>
<!-- 1&#45;&gt;4 -->
<g id="edge5" class="edge">
<title>1&#45;&gt;4</title>
<path fill="none" stroke="black" d="M253.94,-192.82C247.64,-188.4 240.06,-183.28 233,-179 219.23,-170.66 216.3,-167.01 201,-162 176.14,-153.86 146.46,-150.13 125.36,-148.42"/>
<polygon fill="black" stroke="black" points="125.4,-144.92 115.18,-147.7 124.91,-151.9 125.4,-144.92"/>
<text text-anchor="middle" x="183" y="-165.8" font-family="Times,serif" font-size="14.00">1</text>
</g>
<!-- 1&#45;&gt;0 -->
<g id="edge6" class="edge">
<title>1&#45;&gt;0</title>
<path fill="none" stroke="black" d="M279.44,-187.8C292.68,-166.48 316.86,-127.54 332.42,-102.48"/>
<polygon fill="black" stroke="black" points="335.42,-104.28 337.72,-93.94 329.47,-100.59 335.42,-104.28"/>
<text text-anchor="middle" x="308.5" y="-147.8" font-family="Times,serif" font-size="14.00">7</text>
</g>
<!-- 1&#45;&gt;5 -->
<g id="edge8" class="edge">
<title>1&#45;&gt;5</title>
<path fill="none" stroke="black" d="M250.9,-203.2C239.63,-203.34 224.62,-203.52 211.67,-203.67"/>
<polygon fill="black" stroke="black" points="211.36,-200.17 201.4,-203.79 211.45,-207.17 211.36,-200.17"/>
<text text-anchor="middle" x="226" y="-206.8" font-family="Times,serif" font-size="14.00">4</text>
</g>
<!-- 5&#45;&gt;4 -->
<g id="edge12" class="edge">
<title>5&#45;&gt;4</title>
<path fill="none" stroke="black" d="M164.99,-204.39C155,-203.89 142.52,-201.92 133,-196 123.68,-190.2 116.11,-180.92 110.44,-171.98"/>
<polygon fill="black" stroke="black" points="113.44,-170.19 105.39,-163.31 107.39,-173.71 113.44,-170.19"/>
<text text-anchor="middle" x="140" y="-204.8" font-family="Times,serif" font-size="14.00">8</text>
</g>
<!-- 5&#45;&gt;1 -->
<g id="edge11" class="edge">
<title>5&#45;&gt;1</title>
<path fill="none" stroke="black" d="M197.91,-193.83C204.05,-189.95 211.56,-185.98 219,-184 227.75,-181.68 237.07,-184.01 245.21,-187.73"/>
<polygon fill="black" stroke="black" points="243.66,-190.87 254.12,-192.55 246.99,-184.71 243.66,-190.87"/>
<text text-anchor="middle" x="226" y="-187.8" font-family="Times,serif" font-size="14.00">17</text>
</g>
</g>
</svg>
